<?xml version="1.0" standalone="no"?><!DOCTYPE svg PUBLIC "-//W3C//DTD SVG 1.1//EN" "http://www.w3.org/Graphics/SVG/1.1/DTD/svg11.dtd"><svg t="1536831481341" class="icon" style="" viewBox="0 0 1024 1024" version="1.1" xmlns="http://www.w3.org/2000/svg" p-id="857" xmlns:xlink="http://www.w3.org/1999/xlink" width="200" height="200"><defs><style type="text/css"></style></defs><path d="M95.6 434.2h136.7c21.1-2.6 26.4-5.2 26.4-23.2v-5.2c0-20.6 13.8-36.1 35-36.1h34c21.1 0 37 15.5 37 36.1v5.2c0 20.6 5.3 23.2 26.4 23.2h253.7c18.5 0 21.1-2.6 21.1-20.6v-7.7c0-20.6 15.8-36.1 37-36.1h29c21.1 0 37 15.5 37 36.1v7.7c0 18.1 5.3 20.6 23.8 20.6h142.6c18.5 0 23.8-5.2 23.8-23.2v-41.3c0-41.3-34.3-74.8-73.9-74.8H140.5c-39.6 0-73.9 33.5-73.9 74.8v38.7c0 20.7 5.3 25.8 29 25.8zM935.3 439.4H793.1c-18.4 2.8-23.7 5.5-23.7 24.9v8.3c0 22.1-15.8 38.7-36.9 38.7h-29c-21.1 0-36.9-16.6-36.9-38.7v-8.3c0-16.6-5.3-22.1-21.1-22.1H390.3c-21.1 0-26.3 5.5-26.3 24.9v5.5c0 22.1-15.8 38.7-36.9 38.7h-29c-21.1 0-36.9-16.6-36.9-38.7v-5.5c0-22.1-5.3-27.6-26.3-27.6H95.5c-23.7 0-29 5.5-29 30.4v395.4c0 44.2 34.2 80.2 73.7 80.2h745c39.5 0 73.7-35.9 73.7-80.2v-401c0.1-16.6-7.8-24.9-23.6-24.9z" fill="" p-id="858"></path><path d="M310 392.1c-11.2 0-22.4 12.5-22.4 29.3v35.5c0 16.7 9 29.3 22.4 29.3 13.4 0 24.6-12.5 24.6-29.3v-35.5c0.1-16.7-11.1-29.3-24.6-29.3zM717.4 392.1c-13.4 0-24.6 12.5-24.6 29.3v35.5c0 16.7 11.2 29.3 24.6 29.3 11.2 0 22.4-12.5 22.4-29.3v-35.5c0-16.7-8.9-29.3-22.4-29.3zM329.8 247.7c28-2.6 33-20.4 33-20.4 23.3-62.9 83.1-104.6 150-104.6 68.6 0 127.1 43.4 150 107.1 0 0 5.1 20.4 33 20.4 28 0 28-20.4 28-20.4C698.3 132.9 614.5 64 512.8 64s-188.1 71.4-211 165.8c0 0-2.5 17.9 28 17.9z" fill="" p-id="859"></path></svg>