<?xml version="1.0" standalone="no"?><!DOCTYPE svg PUBLIC "-//W3C//DTD SVG 1.1//EN" "http://www.w3.org/Graphics/SVG/1.1/DTD/svg11.dtd"><svg t="1536830191928" class="icon" style="" viewBox="0 0 1024 1024" version="1.1" xmlns="http://www.w3.org/2000/svg" p-id="741" xmlns:xlink="http://www.w3.org/1999/xlink" width="200" height="200"><defs><style type="text/css"></style></defs><path d="M696.5 365.7H415.3v-66.2h-49.6v66.2H283v-66.2h-49.6v66.2h-99.2v49.6h99.2v49.6H283v-49.6h82.7v49.6h49.6v-49.6h281.2v49.6h49.6v-49.6h148.8v-49.6H746.1v-66.2h-49.6v66.2z m-99.3 314.2v49.6h49.6v-49.6h248.1v-49.6H646.8v-66.2h-49.6v66.2h-248v-66.2h-49.6v66.2H134.2v49.6h165.4v49.6h49.6v-49.6h248zM197 101.1h635.1c53 0 95.9 42.9 95.9 95.9v635.1c0 53-42.9 95.9-95.9 95.9H197c-53 0-95.9-42.9-95.9-95.9V197c0-53 42.9-95.9 95.9-95.9z" fill="" p-id="742"></path></svg>